<svg width="20" height="20" viewBox="0 0 20 20" fill="none" xmlns="http://www.w3.org/2000/svg">
<g id="mail_outline" clip-path="url(#clip0_138_69)">
<path id="Vector" d="M16.667 3.33301H3.33366C2.41699 3.33301 1.67533 4.08301 1.67533 4.99967L1.66699 14.9997C1.66699 15.9163 2.41699 16.6663 3.33366 16.6663H16.667C17.5837 16.6663 18.3337 15.9163 18.3337 14.9997V4.99967C18.3337 4.08301 17.5837 3.33301 16.667 3.33301ZM15.8337 14.9997H4.16699C3.70866 14.9997 3.33366 14.6247 3.33366 14.1663V6.66634L9.11699 10.283C9.65866 10.6247 10.342 10.6247 10.8837 10.283L16.667 6.66634V14.1663C16.667 14.6247 16.292 14.9997 15.8337 14.9997ZM10.0003 9.16634L3.33366 4.99967H16.667L10.0003 9.16634Z" fill="black"/>
</g>
<defs>
<clipPath id="clip0_138_69">
<rect width="20" height="20" fill="white"/>
</clipPath>
</defs>
</svg>
