<svg width="20" height="20" viewBox="0 0 20 20" fill="none" xmlns="http://www.w3.org/2000/svg">
<g id="add_ic_call" clip-path="url(#clip0_138_74)">
<path id="Vector" d="M11.6667 6.66667H13.3334V8.33333C13.3334 8.79167 13.7084 9.16667 14.1667 9.16667C14.6251 9.16667 15.0001 8.79167 15.0001 8.33333V6.66667H16.6667C17.1251 6.66667 17.5001 6.29167 17.5001 5.83333C17.5001 5.375 17.1251 5 16.6667 5H15.0001V3.33333C15.0001 2.875 14.6251 2.5 14.1667 2.5C13.7084 2.5 13.3334 2.875 13.3334 3.33333V5H11.6667C11.2084 5 10.8334 5.375 10.8334 5.83333C10.8334 6.29167 11.2084 6.66667 11.6667 6.66667ZM16.0084 12.725L13.8917 12.4833C13.3834 12.425 12.8834 12.6 12.5251 12.9583L10.9917 14.4917C8.6334 13.2917 6.70007 11.3667 5.50007 9L7.04173 7.45833C7.40007 7.1 7.57507 6.59167 7.51673 6.09167L7.27507 3.99167C7.1834 3.15 6.46673 2.50833 5.62507 2.50833H4.1834C3.24173 2.50833 2.4584 3.29167 2.51673 4.23333C2.9584 11.35 8.65007 17.0333 15.7584 17.475C16.7001 17.5333 17.4834 16.75 17.4834 15.8083V14.3667C17.4917 13.5333 16.8501 12.8167 16.0084 12.725Z" fill="black"/>
</g>
<defs>
<clipPath id="clip0_138_74">
<rect width="20" height="20" fill="white"/>
</clipPath>
</defs>
</svg>
