<svg width="25" height="24" viewBox="0 0 25 24" fill="none" xmlns="http://www.w3.org/2000/svg">
<g id="carbon:timer">
<path id="Vector" d="M11.75 8.25H13.25V15H11.75V8.25ZM10.25 1.5H14.75V3H10.25V1.5Z" fill="white"/>
<path id="Vector_2" d="M21.5001 6.75002L20.4351 5.69252L18.7476 7.38002C17.3662 5.7848 15.4234 4.7831 13.3227 4.58305C11.222 4.38301 9.12503 5 7.46742 6.30583C5.80981 7.61166 4.71903 9.50593 4.42172 11.5951C4.12441 13.6842 4.64342 15.8076 5.87092 17.524C7.09843 19.2404 8.94004 20.4179 11.0131 20.8119C13.0862 21.2058 15.2314 20.7859 17.0029 19.6394C18.7744 18.4928 20.0361 16.7078 20.5259 14.6553C21.0156 12.6027 20.6957 10.4404 19.6326 8.61752L21.5001 6.75002ZM12.5001 19.5C11.1651 19.5 9.86001 19.1041 8.74998 18.3624C7.63995 17.6207 6.77478 16.5665 6.26389 15.3331C5.753 14.0997 5.61933 12.7425 5.87978 11.4332C6.14023 10.1238 6.7831 8.92106 7.72711 7.97705C8.67111 7.03305 9.87385 6.39017 11.1832 6.12972C12.4926 5.86927 13.8498 6.00295 15.0832 6.51384C16.3166 7.02473 17.3708 7.88989 18.1125 8.99992C18.8542 10.11 19.2501 11.415 19.2501 12.75C19.2501 14.5402 18.5389 16.2571 17.273 17.523C16.0072 18.7889 14.2903 19.5 12.5001 19.5Z" fill="white"/>
</g>
</svg>
